<?xml version="1.0" encoding="utf-8"?>
<svg viewBox="0 0 500 500" xmlns="http://www.w3.org/2000/svg">
  <g id="freepik--speech-bubbles--inject-9" transform="matrix(0.993191, 0, 0, 0.993191, 2.761453, -10.479684)" style="">
    <g id="freepik--speech-bubble--inject-9">
      <g style="opacity:0.15"/>
    </g>
    <g id="freepik--speech-bubble--inject-9"/>
    <g id="freepik--speech-bubble--inject-9">
      <g style="opacity:0.15"/>
      <g id="freepik--check--inject-9"/>
      <g id="freepik--check--inject-9"/>
    </g>
  </g>
  <g id="g-1" transform="matrix(10.462809, 0.001508, 0, 9.210091, -1047.760986, -534.252563)" style="">
    <g id="g-2">
      <path d="M105.29,109.57l-1.36-.78a1.1,1.1,0,0,1-.49-.86V81.63a1.1,1.1,0,0,1,.49-.86l36.6-21.16a1.08,1.08,0,0,1,1,0l1.35.78a1.1,1.1,0,0,1,.5.86v26.3a1.07,1.07,0,0,1-.5.86l-36.59,21.16A1.08,1.08,0,0,1,105.29,109.57Z" style="fill:#0032FF"/>
      <g style="opacity:0.4">
        <path d="M105.29,109.57l-1.36-.78a1.1,1.1,0,0,1-.49-.86V81.63a1.1,1.1,0,0,1,.49-.86l36.6-21.16a1.08,1.08,0,0,1,1,0l1.35.78a1.1,1.1,0,0,1,.5.86v26.3a1.07,1.07,0,0,1-.5.86l-36.59,21.16A1.08,1.08,0,0,1,105.29,109.57Z" style="fill:#fff"/>
      </g>
      <path d="M106.28,82.12,142.87,61c.28-.16.5,0,.5.28v26.3a1.07,1.07,0,0,1-.5.86l-36.59,21.16c-.27.16-.5,0-.5-.29V83A1.13,1.13,0,0,1,106.28,82.12Z" style="fill:#0032FF"/>
      <path d="M106.17,109.62a1.1,1.1,0,0,1-.89-.05l-1.34-.78a1.1,1.1,0,0,1-.5-.86V81.63a1,1,0,0,1,.14-.49l2.35,1.35a1.07,1.07,0,0,0-.15.49v26.3C105.78,109.55,105.94,109.69,106.17,109.62Z" style="fill:#0032FF"/>
      <g style="opacity:0.15">
        <path d="M106.17,109.62a1.1,1.1,0,0,1-.89-.05l-1.34-.78a1.1,1.1,0,0,1-.5-.86V81.63a1,1,0,0,1,.14-.49l2.35,1.35a1.07,1.07,0,0,0-.15.49v26.3C105.78,109.55,105.94,109.69,106.17,109.62Z"/>
      </g>
      <path d="M111.15,86.89,138,71.36c.46-.27.83-.08.83.42a1.8,1.8,0,0,1-.83,1.38L111.15,88.69c-.46.27-.83.08-.83-.42A1.8,1.8,0,0,1,111.15,86.89Z" style="fill:#f5f5f5"/>
      <path d="M111.15,92.72,138,77.18c.46-.27.83-.08.83.42A1.78,1.78,0,0,1,138,79L111.15,94.51c-.46.27-.83.08-.83-.42A1.76,1.76,0,0,1,111.15,92.72Z" style="fill:#f5f5f5"/>
      <path d="M133.6,93.1l.55,4.61a.57.57,0,0,1-.85.56l-4.4-2.52Z" style="fill:#0032FF"/>
      <g id="freepik--Check--inject-9">
        <path d="M135.24,84.43a.57.57,0,0,0-.76.28l-2.33,5.09-.5-.52a.58.58,0,0,0-.83.8l1.08,1.12a.62.62,0,0,0,.4.18h.11a.56.56,0,0,0,.43-.33l2.68-5.85A.56.56,0,0,0,135.24,84.43Z" style="fill:#455a64"/>
      </g>
      <g id="g-3">
        <path d="M140.19,81.76a.58.58,0,0,0-.76.28l-2.33,5.09-.5-.52a.59.59,0,0,0-.82,0,.58.58,0,0,0,0,.81l1.08,1.13a.6.6,0,0,0,.4.17h.11a.57.57,0,0,0,.43-.32l2.68-5.86A.56.56,0,0,0,140.19,81.76Z" style="fill:#455a64"/>
      </g>
    </g>
    <g id="g-2">
      <g style="opacity:0.4"/>
      <g style="opacity:0.15"/>
      <g id="g-3"/>
      <g id="g-3"/>
    </g>
  </g>
</svg>