<?xml version="1.0" encoding="utf-8"?>
<svg viewBox="0 0 500 500" xmlns="http://www.w3.org/2000/svg">
  <g id="freepik--speech-bubbles--inject-9" transform="matrix(0.993191, 0, 0, 0.993191, 2.761453, -10.479684)" style="">
    <g id="freepik--speech-bubble--inject-9">
      <g style="opacity:0.15"/>
    </g>
    <g id="freepik--speech-bubble--inject-9"/>
    <g id="freepik--speech-bubble--inject-9">
      <g style="opacity:0.15"/>
      <g id="freepik--check--inject-9"/>
      <g id="freepik--check--inject-9"/>
    </g>
  </g>
  <g id="freepik--character-1--inject-9" transform="matrix(0.665586, 0, 0, 0.665586, 147.930382, 101.696203)" style=""/>
  <g id="g-1" transform="matrix(0.665586, 0, 0, 0.665586, -72.726763, 68.142169)" style=""/>
  <g id="g-2" transform="matrix(15.703751, 0, 0, 15.689751, -4184.314941, -2077.795654)" style="">
    <g id="g-3"/>
    <g id="g-3">
      <path d="M269.36,163.55l-1.35-.78a1.1,1.1,0,0,1-.5-.86V149a1.08,1.08,0,0,1,.5-.86l25.92-15a1.15,1.15,0,0,1,1,0l1.35.78a1.1,1.1,0,0,1,.5.87v12.94a1.1,1.1,0,0,1-.5.87l-25.91,15A1.1,1.1,0,0,1,269.36,163.55Z" style="fill:#0032FF"/>
      <g style="opacity:0.4">
        <path d="M269.36,163.55l-1.35-.78a1.1,1.1,0,0,1-.5-.86V149a1.08,1.08,0,0,1,.5-.86l25.92-15a1.15,1.15,0,0,1,1,0l1.35.78a1.1,1.1,0,0,1,.5.87v12.94a1.1,1.1,0,0,1-.5.87l-25.91,15A1.1,1.1,0,0,1,269.36,163.55Z" style="fill:#fff"/>
      </g>
      <path d="M270.36,149.45l25.91-15c.28-.16.5,0,.5.29v12.94a1.1,1.1,0,0,1-.5.87l-25.91,15c-.28.16-.5,0-.5-.29V150.31A1.1,1.1,0,0,1,270.36,149.45Z" style="fill:#0032FF"/>
      <path d="M277,158.3v4.62a.74.74,0,0,0,1.36.42l6.73-9.71Z" style="fill:#0032FF"/>
      <path d="M270.24,163.6a1.12,1.12,0,0,1-.88,0l-1.35-.78a1.1,1.1,0,0,1-.5-.86V149a.93.93,0,0,1,.15-.49l2.34,1.35a1,1,0,0,0-.14.49v12.95C269.86,163.53,270,163.67,270.24,163.6Z" style="fill:#0032FF"/>
      <g style="opacity:0.15">
        <path d="M270.24,163.6a1.12,1.12,0,0,1-.88,0l-1.35-.78a1.1,1.1,0,0,1-.5-.86V149a.93.93,0,0,1,.15-.49l2.34,1.35a1,1,0,0,0-.14.49v12.95C269.86,163.53,270,163.67,270.24,163.6Z"/>
      </g>
    </g>
  </g>
</svg>