<?xml version="1.0" encoding="utf-8"?>
<svg viewBox="0 0 500 500" xmlns="http://www.w3.org/2000/svg">
  <g id="freepik--speech-bubbles--inject-9" transform="matrix(0.993191, 0, 0, 0.993191, 2.761453, -10.479684)" style="">
    <g id="freepik--speech-bubble--inject-9">
      <g style="opacity:0.15"/>
    </g>
    <g id="freepik--speech-bubble--inject-9"/>
    <g id="freepik--speech-bubble--inject-9">
      <g style="opacity:0.15"/>
      <g id="freepik--check--inject-9"/>
      <g id="freepik--check--inject-9"/>
    </g>
  </g>
  <g id="freepik--character-1--inject-9" transform="matrix(0.665586, 0, 0, 0.665586, 147.930382, 101.696203)" style=""/>
  <g id="g-4" transform="matrix(9.64545, 0, 0, 9.64545, -2394.943359, -306.37384)" style="">
    <g id="g-5"/>
    <g id="g-5">
      <path d="M255.39,82.56,254,81.78a1.1,1.1,0,0,1-.5-.87V54.62a1.1,1.1,0,0,1,.5-.87L290.63,32.6a1.1,1.1,0,0,1,1,0l1.35.78a1.11,1.11,0,0,1,.5.86v26.3a1.11,1.11,0,0,1-.5.86L256.39,82.56A1.1,1.1,0,0,1,255.39,82.56Z" style="fill:#0032FF"/>
      <g style="opacity:0.4">
        <path d="M255.39,82.56,254,81.78a1.1,1.1,0,0,1-.5-.87V54.62a1.1,1.1,0,0,1,.5-.87L290.63,32.6a1.1,1.1,0,0,1,1,0l1.35.78a1.11,1.11,0,0,1,.5.86v26.3a1.11,1.11,0,0,1-.5.86L256.39,82.56A1.1,1.1,0,0,1,255.39,82.56Z" style="fill:#fff"/>
      </g>
      <path d="M256.39,55.11,293,34c.27-.16.5,0,.5.29v26.3a1.11,1.11,0,0,1-.5.86L256.39,82.56c-.28.16-.5,0-.5-.29V56A1.08,1.08,0,0,1,256.39,55.11Z" style="fill:#0032FF"/>
      <path d="M263,77.31v4.62a.75.75,0,0,0,1.37.42l6.73-9.71Z" style="fill:#0032FF"/>
      <path d="M256.27,82.61a1.12,1.12,0,0,1-.88,0L254,81.78a1.1,1.1,0,0,1-.5-.86V54.62a1,1,0,0,1,.15-.49L256,55.48a1,1,0,0,0-.14.49v26.3C255.89,82.54,256.05,82.68,256.27,82.61Z" style="fill:#0032FF"/>
      <g style="opacity:0.15">
        <path d="M256.27,82.61a1.12,1.12,0,0,1-.88,0L254,81.78a1.1,1.1,0,0,1-.5-.86V54.62a1,1,0,0,1,.15-.49L256,55.48a1,1,0,0,0-.14.49v26.3C255.89,82.54,256.05,82.68,256.27,82.61Z"/>
      </g>
      <path d="M261.25,59.88l26.86-15.54c.46-.26.83-.07.83.42a1.77,1.77,0,0,1-.83,1.38L261.25,61.68c-.46.26-.83.08-.83-.42A1.78,1.78,0,0,1,261.25,59.88Z" style="fill:#f5f5f5"/>
      <path d="M261.25,65.7l26.86-15.53c.46-.27.83-.08.83.42a1.76,1.76,0,0,1-.83,1.37L261.25,67.5c-.46.26-.83.08-.83-.42A1.78,1.78,0,0,1,261.25,65.7Z" style="fill:#f5f5f5"/>
      <g id="g-6">
        <path d="M285.35,57.41a.58.58,0,0,0-.76.29l-2.34,5.09-.5-.52a.57.57,0,0,0-.81,0,.58.58,0,0,0,0,.82L282,64.19a.52.52,0,0,0,.39.17.48.48,0,0,0,.12,0,.57.57,0,0,0,.42-.33l2.69-5.85A.59.59,0,0,0,285.35,57.41Z" style="fill:#455a64"/>
      </g>
      <g id="g-6">
        <path d="M290.3,54.75a.57.57,0,0,0-.76.28l-2.34,5.09-.5-.52a.58.58,0,0,0-.83.8L287,61.52a.57.57,0,0,0,.39.18h.12a.55.55,0,0,0,.42-.33l2.69-5.85A.58.58,0,0,0,290.3,54.75Z" style="fill:#455a64"/>
      </g>
    </g>
  </g>
</svg>